<?xml version="1.0" encoding="UTF-8"?>
<svg xmlns="http://www.w3.org/2000/svg" xmlns:xlink="http://www.w3.org/1999/xlink" width="60px" height="78px" viewBox="0 0 60 78" version="1.1">
<g id="surface1">
<path style=" stroke:none;fill-rule:nonzero;fill:rgb(100%,100%,100%);fill-opacity:1;" d="M 14.273438 16.351562 C 12.484375 16.339844 10.542969 16.847656 8.546875 17.679688 C 5.386719 19.234375 3.121094 24.324219 5.628906 31.230469 C 8.132812 38.132812 14.640625 38.527344 18.523438 37.597656 C 22.40625 36.667969 24.011719 27.8125 21.421875 21.675781 C 19.804688 17.839844 17.257812 16.371094 14.273438 16.351562 Z M 23.976562 40.957031 C 23.976562 40.957031 18.847656 41.808594 15.234375 42.886719 C 11.621094 43.96875 9.089844 47.679688 9.023438 50.523438 C 8.957031 53.363281 13.144531 61.097656 14.394531 64.019531 C 15.644531 66.941406 15.210938 70.480469 13.925781 75.679688 C 12.230469 78.421875 24.621094 78.875 30.570312 76.480469 C 35.339844 74.558594 36.457031 75.722656 38.125 76.011719 C 40.835938 76.488281 41.882812 76.488281 41.882812 76.488281 L 48.65625 71.398438 C 48.65625 71.398438 51.210938 70.539062 52.535156 69.902344 C 53.863281 69.269531 54.105469 66.496094 54.105469 66.496094 L 59.347656 61.082031 C 59.347656 61.082031 57.277344 56.671875 55.066406 52.789062 C 52.855469 48.90625 51.34375 47.066406 47.9375 44.105469 C 44.535156 41.144531 39.691406 39.945312 34.308594 39.460938 C 30.882812 39.203125 27.257812 39.699219 23.976562 40.957031 Z M 23.976562 40.957031 "/>
<path style=" stroke:none;fill-rule:nonzero;fill:rgb(0%,0%,0%);fill-opacity:1;" d="M 13.25 75.679688 C 13.792969 74.390625 14.433594 70.21875 13.539062 65.476562 C 11.34375 66.230469 2.90625 70.417969 0.65625 68.546875 C -1.800781 66.5 3.273438 55.691406 5.296875 52.304688 C 9.300781 45.691406 10.382812 44.660156 12.796875 43.25 C 15.304688 41.789062 19.296875 40.675781 22.667969 40.5 C 23.6875 40.445312 25.339844 40.175781 26.332031 39.902344 C 28.582031 39.285156 33.191406 38.59375 34.835938 38.863281 C 47.121094 40.539062 49.839844 44.945312 54.089844 50.113281 C 56.300781 52.902344 58.523438 57.246094 59.089844 59.882812 L 59.347656 61.082031 L 57.347656 63.261719 C 55.910156 64.828125 55.347656 65.625 55.347656 66.089844 C 55.347656 66.453125 55.023438 67.097656 54.605469 67.574219 C 54.195312 68.039062 53.859375 68.632812 53.859375 68.894531 C 53.859375 69.480469 52.992188 70.449219 52.464844 70.449219 C 52.25 70.449219 51.746094 70.726562 51.339844 71.0625 C 50.632812 71.660156 50.242188 71.78125 49.363281 71.695312 C 49.136719 71.675781 48.136719 72.394531 47.136719 73.292969 C 45.066406 75.160156 43.566406 76.246094 42.410156 76.71875 C 41.742188 76.988281 41.285156 76.988281 39.671875 76.707031 C 37.480469 76.328125 37.273438 76.242188 37.273438 75.699219 C 37.273438 75.371094 37.558594 75.332031 39.144531 75.433594 L 41.011719 75.550781 L 41.371094 74.695312 C 41.570312 74.222656 41.730469 73.394531 41.730469 72.855469 C 41.730469 71.671875 40.695312 69.652344 39.863281 69.210938 C 39.144531 68.828125 37.945312 69.042969 37.097656 69.707031 C 36.75 69.976562 36.335938 70.199219 36.179688 70.199219 C 36.023438 70.199219 35.773438 70.53125 35.617188 70.933594 C 35.316406 71.734375 35.085938 71.855469 32.324219 72.671875 C 30.976562 73.074219 29.578125 73.253906 27.234375 73.339844 C 24.28125 73.449219 23.886719 73.410156 22.707031 72.90625 C 21.148438 72.238281 20.679688 71.625 19.6875 68.945312 C 19.269531 67.8125 18.5625 66.597656 18.296875 66.171875 C 17.726562 65.253906 18.011719 64.929688 18.457031 64.929688 C 19.015625 64.929688 19.492188 65.921875 20.800781 68.550781 C 22.320312 71.605469 22.78125 71.925781 25.699219 71.925781 C 27.363281 71.925781 27.617188 71.871094 27.613281 71.496094 C 27.605469 71.070312 27.230469 69.257812 26.972656 68.414062 C 26.886719 68.132812 26.976562 67.984375 27.226562 67.984375 C 27.628906 67.984375 28.335938 69.195312 28.847656 70.769531 C 29.132812 71.652344 29.199219 71.699219 29.933594 71.554688 C 32.058594 71.132812 33.847656 70.382812 34.117188 69.796875 C 34.589844 68.765625 33.585938 61.410156 32.578125 58.535156 C 31.222656 54.65625 28.394531 49.839844 26.6875 48.503906 C 26.136719 48.070312 25.824219 48.019531 24.660156 48.152344 C 23.488281 48.289062 20.710938 48.933594 20.492188 49.125 C 20.453125 49.15625 20.648438 49.761719 20.929688 50.46875 C 21.800781 52.675781 20.921875 52.765625 19.777344 50.585938 C 19.09375 49.285156 19.054688 49.253906 18.210938 49.40625 C 17.734375 49.488281 16.789062 49.738281 16.105469 49.957031 C 15.011719 50.3125 14.859375 50.445312 14.792969 51.117188 C 14.753906 51.535156 15.050781 52.921875 15.457031 54.199219 C 16.273438 56.777344 17.316406 60.226562 17.222656 60.589844 C 16.675781 62.691406 15.003906 57.421875 13.726562 53.316406 C 13.058594 51.175781 13.113281 50.222656 13.953125 49.417969 C 14.335938 49.054688 14.773438 48.757812 14.929688 48.757812 C 15.113281 48.757812 15.160156 48.453125 15.066406 47.886719 C 14.933594 47.054688 14.96875 47 15.929688 46.625 C 16.613281 46.359375 16.984375 46.039062 17.085938 45.636719 C 17.167969 45.308594 17.53125 44.90625 17.894531 44.742188 C 18.605469 44.421875 21.058594 42.101562 20.691406 42.101562 C 19.953125 42.101562 17 43.21875 15.683594 43.746094 C 11.320312 45.503906 9.605469 48.71875 10.078125 51.089844 C 10.371094 52.550781 10.683594 53.558594 12.898438 58.738281 C 13.160156 59.144531 14.417969 63.015625 14.847656 63.050781 C 14.996094 63.050781 15.839844 62.6875 16.726562 62.246094 C 18.535156 61.339844 18.46875 61.539062 18.105469 58.125 C 17.984375 56.980469 18.03125 56.34375 18.265625 55.90625 C 18.753906 54.996094 19.3125 55.117188 19.390625 56.152344 C 19.425781 56.625 19.515625 57.378906 19.589844 57.828125 L 19.722656 58.640625 L 20.464844 57.164062 C 21.144531 55.8125 21.953125 55.113281 22.363281 55.519531 C 22.449219 55.605469 22.320312 56.199219 22.074219 56.839844 C 21.40625 58.570312 20.941406 60.371094 20.9375 61.222656 C 20.929688 63.542969 22.714844 66.378906 24.402344 66.71875 C 25.035156 66.847656 25.265625 67.023438 25.265625 67.375 C 25.265625 67.933594 24.699219 68.09375 23.496094 67.867188 C 22.320312 67.648438 20.898438 66.121094 20.039062 64.15625 C 19.652344 63.277344 19.277344 62.585938 19.207031 62.625 C 17.847656 63.320312 16.804688 63.847656 15.359375 64.582031 C 15.628906 68.300781 16.246094 72.980469 14.675781 76.230469 C 13.996094 77.636719 12.605469 77.226562 13.25 75.679688 Z M 46.308594 72.398438 C 48.054688 70.980469 51.007812 68.023438 55.347656 63.34375 C 56.886719 61.683594 57.726562 60.578125 57.777344 60.144531 C 57.851562 59.503906 57.820312 59.519531 57.035156 60.464844 C 53.441406 64.785156 47.460938 71.09375 45.941406 72.171875 L 45.113281 72.757812 L 45.589844 71.933594 C 46.042969 71.144531 51.425781 65.152344 55.449219 60.957031 C 57.109375 59.230469 57.324219 58.894531 57.226562 58.246094 C 57.113281 57.488281 54.894531 53.1875 54.628906 53.203125 C 54.546875 53.207031 53.992188 54.066406 53.390625 55.113281 C 50.28125 60.554688 44.800781 67.878906 43.207031 68.726562 C 42.328125 69.195312 43 68.078125 45.917969 64.222656 C 47.519531 62.101562 49.878906 58.851562 51.15625 57 C 52.433594 55.148438 53.722656 53.445312 54.019531 53.210938 L 54.558594 52.789062 L 53.699219 51.511719 C 53.226562 50.8125 52.792969 50.234375 52.738281 50.234375 C 52.679688 50.234375 51.472656 52.59375 50.054688 55.472656 C 48.25 59.136719 47.058594 61.222656 46.097656 62.40625 C 43.347656 65.796875 42.832031 65.390625 45.335938 61.808594 C 46.226562 60.527344 47.917969 57.605469 49.089844 55.320312 C 50.261719 53.03125 51.492188 50.84375 51.820312 50.453125 L 52.414062 49.75 L 51.917969 49.070312 C 51.25 48.152344 47.464844 44.441406 47.339844 44.582031 C 47.285156 44.640625 47.007812 45.863281 46.71875 47.296875 C 45.851562 51.636719 43.972656 57.605469 42.121094 61.882812 C 41.902344 62.390625 41.773438 62.808594 41.835938 62.808594 C 42.089844 62.808594 44.226562 58.59375 45.152344 56.273438 C 46.03125 54.070312 48.84375 47.78125 49.046875 47.5625 C 49.089844 47.515625 49.238281 47.546875 49.375 47.628906 C 49.703125 47.832031 49.304688 49.125 47.851562 52.578125 C 47.226562 54.070312 46.324219 56.261719 45.847656 57.453125 C 45.375 58.644531 44.144531 60.972656 43.113281 62.628906 C 41.269531 65.597656 40.089844 67.226562 40.3125 66.503906 C 40.375 66.300781 40.507812 65.855469 40.613281 65.519531 L 40.800781 64.902344 L 40.3125 65.519531 C 39.261719 66.84375 38.988281 67.738281 39.636719 67.738281 C 40.449219 67.738281 41.492188 68.523438 42.136719 69.625 L 42.8125 70.773438 L 43.1875 70.179688 C 43.390625 69.851562 45.351562 67.753906 47.542969 65.519531 C 49.734375 63.28125 52.546875 60.398438 53.792969 59.117188 C 55.914062 56.933594 56.828125 56.378906 56.109375 57.714844 C 55.53125 58.792969 50.527344 64.210938 46.789062 67.808594 C 43.234375 71.230469 43.066406 71.433594 43.160156 72.238281 C 43.214844 72.703125 43.148438 73.492188 43.007812 73.992188 L 42.753906 74.902344 L 43.667969 74.355469 C 44.167969 74.050781 45.355469 73.171875 46.308594 72.398438 Z M 52.625 68.585938 C 52.625 68.375 52.511719 68.269531 52.375 68.351562 C 52.238281 68.4375 52.128906 68.609375 52.128906 68.738281 C 52.128906 68.863281 52.238281 68.96875 52.375 68.96875 C 52.511719 68.96875 52.625 68.796875 52.625 68.585938 Z M 38.089844 67.242188 C 38.171875 66.921875 38.097656 66.75 37.871094 66.75 C 37.679688 66.75 37.523438 66.972656 37.523438 67.242188 C 37.523438 67.515625 37.621094 67.738281 37.742188 67.738281 C 37.859375 67.738281 38.015625 67.515625 38.089844 67.242188 Z M 7.054688 66.367188 C 11.058594 65.15625 13.117188 64.140625 13.117188 63.878906 C 11.753906 59.882812 9.625 56.851562 8.554688 52.496094 L 8.128906 50.65625 C 5.820312 54.839844 0.390625 65.640625 2.214844 66.886719 C 2.710938 67.246094 2.878906 67.632812 7.054688 66.367188 Z M 40.21875 59.601562 C 41.570312 54.144531 42 51.652344 42.578125 45.921875 C 42.867188 43.03125 42.882812 42.164062 42.648438 41.933594 C 42.304688 41.601562 39.25 40.546875 39.089844 40.703125 C 39.035156 40.761719 39.097656 41.507812 39.238281 42.359375 C 39.753906 45.542969 39.816406 50.023438 39.421875 55.042969 C 38.855469 62.191406 38.691406 64.917969 38.835938 64.777344 C 38.90625 64.710938 39.527344 62.382812 40.21875 59.601562 Z M 37.746094 61.945312 C 37.761719 61.128906 37.941406 58.691406 38.140625 56.519531 C 38.519531 52.480469 38.621094 43.25 38.308594 41.484375 C 38.136719 40.519531 38.109375 40.5 37.023438 40.4375 C 35.332031 40.339844 35.214844 40.5 35.640625 42.367188 C 35.835938 43.238281 36.121094 44.949219 36.269531 46.167969 C 36.585938 48.78125 37.261719 59.539062 37.296875 62.558594 C 37.328125 64.941406 37.699219 64.433594 37.746094 61.945312 Z M 35.664062 62.746094 C 35.386719 61.019531 33.5625 52.679688 33.144531 51.222656 C 32.675781 49.589844 31.035156 45.429688 30.269531 43.925781 L 29.714844 42.84375 L 28.816406 43.480469 L 27.921875 44.113281 L 29.261719 45.882812 C 30.835938 47.957031 31.457031 49.191406 32.828125 52.980469 C 33.582031 55.066406 35.542969 62.800781 35.542969 63.695312 C 35.542969 63.75 35.605469 63.792969 35.6875 63.792969 C 35.765625 63.792969 35.757812 63.320312 35.664062 62.746094 Z M 43.097656 56.027344 C 43.695312 54.265625 44.679688 51.050781 45.285156 48.878906 C 45.890625 46.710938 46.460938 44.753906 46.550781 44.53125 C 46.671875 44.226562 46.382812 43.941406 45.367188 43.363281 C 44.628906 42.941406 43.910156 42.59375 43.769531 42.59375 C 43.617188 42.59375 43.503906 43.640625 43.484375 45.246094 C 43.421875 49.65625 42.613281 55.566406 41.597656 58.96875 C 41.398438 59.636719 41.238281 60.359375 41.246094 60.570312 C 41.257812 61.140625 41.875 59.636719 43.097656 56.027344 Z M 35.789062 53.414062 C 35.191406 45.21875 34.648438 40.871094 34.234375 40.871094 C 34.097656 40.871094 33.15625 41.265625 32.148438 41.75 L 30.3125 42.628906 L 30.84375 43.414062 C 32.460938 45.8125 34.324219 50.558594 35.292969 54.742188 C 35.601562 56.070312 35.898438 57.109375 35.953125 57.058594 C 36.007812 57.003906 35.933594 55.363281 35.789062 53.414062 Z M 30.035156 49.203125 C 29.367188 47.757812 27.761719 45.175781 27.382812 44.945312 C 27.144531 44.796875 25.832031 46.078125 25.847656 46.441406 C 25.851562 46.542969 26.222656 46.746094 26.671875 46.890625 C 27.203125 47.0625 27.992188 47.765625 28.964844 48.929688 C 29.78125 49.90625 30.492188 50.664062 30.542969 50.609375 C 30.597656 50.558594 30.367188 49.925781 30.035156 49.203125 Z M 18.40625 47.878906 C 19.320312 47.667969 20.6875 47.335938 21.445312 47.140625 C 22.203125 46.945312 23.121094 46.785156 23.488281 46.785156 C 23.855469 46.785156 24.152344 46.671875 24.152344 46.535156 C 24.152344 46.253906 22.183594 46.417969 19.695312 46.90625 C 17.203125 47.402344 15.984375 47.769531 15.984375 48.027344 C 15.984375 48.355469 16.484375 48.324219 18.40625 47.878906 Z M 18.832031 45.800781 C 19.308594 45.59375 19.304688 45.585938 18.78125 45.570312 C 18.484375 45.5625 18.171875 45.664062 18.085938 45.800781 C 17.90625 46.089844 18.148438 46.089844 18.832031 45.800781 Z M 25.59375 44.714844 C 25.804688 44.503906 25.929688 44.285156 25.871094 44.226562 C 25.8125 44.167969 24.703125 44.378906 23.410156 44.699219 L 21.058594 45.277344 L 23.132812 45.1875 C 24.589844 45.125 25.324219 44.984375 25.59375 44.714844 Z M 22.921875 43.828125 C 24.03125 43.675781 25.234375 43.617188 25.597656 43.695312 C 26.121094 43.808594 26.566406 43.605469 27.742188 42.726562 C 28.558594 42.113281 29.980469 41.316406 30.902344 40.953125 C 31.820312 40.59375 32.527344 40.253906 32.472656 40.199219 C 32.320312 40.046875 28.414062 40.609375 26.753906 41.023438 C 25.085938 41.441406 21.632812 43.046875 20.6875 43.84375 C 20.304688 44.164062 20.226562 44.316406 20.484375 44.234375 C 20.714844 44.160156 21.808594 43.976562 22.921875 43.828125 Z M 29.648438 70.644531 C 29.484375 70.480469 29.351562 70.085938 29.351562 69.765625 C 29.351562 69.273438 29.460938 69.195312 30.03125 69.261719 C 30.535156 69.316406 30.734375 69.496094 30.796875 69.925781 C 30.914062 70.757812 30.207031 71.199219 29.648438 70.644531 Z M 31.757812 69.429688 C 31.238281 69.140625 31.203125 68.398438 31.6875 67.996094 C 32.164062 67.601562 33.066406 68.074219 33.066406 68.722656 C 33.066406 69.34375 32.324219 69.742188 31.757812 69.429688 Z M 28.929688 67.933594 C 28.222656 67.042969 28.503906 66.011719 29.453125 66.011719 C 30.300781 66.011719 30.726562 66.628906 30.441406 67.441406 C 30.183594 68.171875 29.339844 68.445312 28.929688 67.933594 Z M 31.933594 66.421875 C 31.746094 65.9375 32.257812 64.777344 32.65625 64.777344 C 33.308594 64.777344 33.660156 65.46875 33.355469 66.140625 C 33.054688 66.796875 32.148438 66.976562 31.933594 66.421875 Z M 24.6875 65.285156 C 23.058594 63.667969 22.441406 61.929688 22.859375 60.136719 C 23.011719 59.480469 23.082031 58.726562 23.019531 58.46875 C 22.890625 57.949219 23.746094 56.398438 24.160156 56.398438 C 24.328125 56.398438 24.363281 56.722656 24.253906 57.300781 L 24.082031 58.203125 L 25 57.503906 C 25.835938 56.871094 25.902344 56.730469 25.765625 55.921875 C 25.648438 55.226562 25.726562 54.917969 26.144531 54.472656 C 26.746094 53.832031 27.132812 53.867188 27.503906 54.605469 C 27.644531 54.882812 27.910156 55.289062 28.089844 55.507812 C 28.367188 55.839844 28.355469 56 28.019531 56.511719 C 27.554688 57.214844 26.660156 58.136719 25.261719 59.34375 C 23.988281 60.441406 24.65625 60.175781 27.113281 58.609375 C 28.300781 57.847656 29.027344 57.230469 28.957031 57.039062 C 28.789062 56.601562 29.449219 56.109375 29.945312 56.300781 C 30.964844 56.6875 31.03125 58.371094 30.027344 58.371094 C 29.738281 58.371094 29.160156 58.695312 28.746094 59.089844 C 28.328125 59.488281 27.273438 60.246094 26.394531 60.773438 C 24.820312 61.722656 24.269531 62.3125 24.960938 62.3125 C 25.394531 62.3125 27.347656 61.296875 28.835938 60.296875 C 29.453125 59.882812 30.125 59.617188 30.382812 59.683594 C 30.632812 59.75 30.785156 59.714844 30.714844 59.605469 C 30.523438 59.300781 31.285156 58.792969 31.699219 58.949219 C 31.90625 59.03125 32.074219 59.378906 32.074219 59.726562 C 32.074219 60.328125 31.8125 60.5625 31.007812 60.679688 C 30.8125 60.707031 30.273438 61.015625 29.8125 61.363281 C 29.355469 61.714844 28.199219 62.40625 27.246094 62.90625 L 25.515625 63.8125 L 27.707031 63.691406 C 29.710938 63.578125 29.910156 63.605469 30.023438 64.035156 C 30.097656 64.316406 30.40625 64.535156 30.800781 64.578125 C 31.316406 64.640625 31.457031 64.789062 31.457031 65.273438 C 31.457031 65.792969 31.339844 65.886719 30.714844 65.886719 C 30.097656 65.886719 29.972656 65.789062 29.992188 65.324219 C 30.007812 64.898438 29.914062 64.796875 29.621094 64.917969 C 29.40625 65.007812 28.761719 65.136719 28.1875 65.207031 C 27.367188 65.304688 27.132812 65.441406 27.074219 65.855469 C 26.933594 66.839844 26.03125 66.625 24.6875 65.285156 Z M 30.742188 63.167969 C 30.535156 62.960938 30.429688 62.601562 30.511719 62.367188 C 30.664062 61.925781 31.296875 61.328125 31.609375 61.328125 C 31.917969 61.328125 32.570312 62.082031 32.570312 62.4375 C 32.570312 62.867188 31.890625 63.546875 31.457031 63.546875 C 31.269531 63.546875 30.949219 63.375 30.742188 63.167969 Z M 23.191406 54.972656 C 22.886719 54.40625 23.28125 53.6875 23.902344 53.6875 C 24.515625 53.6875 24.730469 54.066406 24.542969 54.808594 C 24.363281 55.527344 23.542969 55.625 23.191406 54.972656 Z M 27.941406 54.023438 C 27.738281 53.488281 28.164062 52.84375 28.789062 52.75 C 29.359375 52.664062 29.628906 53.152344 29.429688 53.910156 C 29.265625 54.539062 28.175781 54.625 27.941406 54.023438 Z M 24.640625 53.308594 C 24.160156 52.730469 24.726562 51.65625 25.453125 51.757812 C 26.09375 51.851562 26.339844 52.769531 25.875 53.332031 C 25.492188 53.789062 25.035156 53.78125 24.640625 53.308594 Z M 26.476562 51.851562 C 26.210938 51.167969 26.5 50.605469 27.15625 50.53125 C 27.914062 50.441406 28.246094 51.011719 27.855469 51.734375 C 27.558594 52.289062 26.675781 52.367188 26.476562 51.851562 Z M 22.429688 51.359375 C 22.269531 51.164062 22.171875 50.746094 22.214844 50.433594 C 22.277344 49.996094 22.476562 49.847656 23.09375 49.789062 C 23.769531 49.722656 23.910156 49.804688 24.046875 50.347656 C 24.328125 51.457031 23.136719 52.203125 22.429688 51.359375 Z M 25.285156 50.09375 C 24.613281 49.425781 24.984375 48.511719 25.929688 48.511719 C 26.488281 48.511719 26.796875 49.613281 26.378906 50.117188 C 25.988281 50.582031 25.769531 50.578125 25.285156 50.09375 Z M 13.253906 38.78125 C 9.269531 37.386719 6.871094 35.652344 5.347656 32.4375 C 3.414062 28.316406 3.210938 25.476562 4.445312 21.777344 C 5.265625 19.320312 6.328125 17.644531 8.800781 16.410156 C 12.761719 14.421875 16.75 14.9375 19.769531 18.179688 C 21.460938 20.003906 22.484375 21.355469 23.058594 23.554688 C 23.429688 24.976562 23.449219 25.480469 23.917969 25.589844 C 24.683594 25.769531 24.796875 26.230469 24.167969 26.621094 C 23.734375 26.890625 23.65625 27.1875 23.65625 28.605469 C 23.65625 29.550781 23.765625 30.269531 23.90625 30.269531 C 24.273438 30.269531 24.203125 31.203125 23.820312 31.429688 C 23.636719 31.539062 23.304688 32.167969 23.082031 32.832031 C 22.5 34.546875 21.609375 35.964844 20.464844 36.996094 C 18.375 38.875 15.691406 39.460938 13.253906 38.78125 Z M 18.25 36.953125 C 19.796875 35.976562 20.632812 35.058594 21.34375 33.550781 C 21.949219 32.269531 21.949219 32.265625 21.457031 31.777344 C 20.964844 31.289062 20.964844 31.289062 20.886719 31.828125 C 20.84375 32.125 20.644531 32.367188 20.4375 32.367188 C 20.234375 32.367188 19.984375 32.570312 19.878906 32.824219 C 19.773438 33.082031 19.542969 33.222656 19.34375 33.148438 C 19.152344 33.074219 18.929688 33.179688 18.851562 33.382812 C 18.761719 33.617188 18.535156 33.699219 18.242188 33.609375 C 17.90625 33.503906 17.738281 33.605469 17.640625 33.984375 C 17.539062 34.371094 17.375 34.464844 17.015625 34.351562 C 16.652344 34.234375 16.539062 34.308594 16.566406 34.636719 C 16.589844 34.925781 16.429688 35.078125 16.105469 35.078125 C 15.667969 35.078125 15.613281 34.914062 15.617188 33.671875 C 15.625 31.679688 16.550781 30.398438 18.582031 29.574219 C 19.398438 29.242188 20.542969 28.960938 21.121094 28.945312 C 22.09375 28.917969 22.171875 28.867188 22.171875 28.238281 C 22.171875 27.738281 22.050781 27.558594 21.707031 27.558594 C 20.953125 27.558594 20.59375 26.949219 21.066406 26.476562 C 21.285156 26.257812 21.582031 26.082031 21.726562 26.082031 C 21.972656 26.082031 21.855469 24.449219 21.589844 24.1875 C 21.53125 24.128906 21.066406 24.253906 20.558594 24.464844 C 19.378906 24.957031 19.203125 24.945312 19.203125 24.402344 C 19.203125 24.132812 19.429688 23.464844 20.066406 23.238281 L 21.128906 22.695312 L 20.519531 21.605469 C 19.738281 20.207031 17.332031 17.601562 16.0625 17.296875 C 8.523438 15.492188 4.179688 22 5.363281 28.101562 C 6.535156 33.085938 10.542969 37.503906 15.75 37.660156 C 16.84375 37.664062 17.351562 37.519531 18.25 36.953125 Z M 12.730469 27.121094 C 12.765625 26.445312 14.527344 25.59375 15.074219 25.652344 C 16.113281 25.761719 15.402344 26.652344 14.519531 27.242188 C 13.519531 27.914062 12.6875 28.003906 12.730469 27.121094 Z M 53.707031 34.21875 C 53.074219 33.964844 52.628906 32.820312 52.804688 31.898438 C 52.976562 31.003906 53.882812 30.429688 54.808594 30.632812 L 55.527344 30.789062 L 56.222656 27.878906 C 56.605469 26.28125 57.019531 24.859375 57.140625 24.726562 C 58.367188 24.335938 58.085938 25.800781 58.894531 25.839844 C 59.667969 25.84375 60.148438 26.214844 59.96875 26.671875 C 59.792969 27.136719 58.320312 27.214844 57.886719 26.785156 C 57.570312 26.472656 57.601562 26.367188 56.949219 29.777344 C 56.429688 32.5 55.804688 33.902344 54.972656 34.214844 C 54.441406 34.503906 54.15625 34.398438 53.707031 34.21875 Z M 40.96875 26.839844 C 39.871094 25.746094 40.132812 24.140625 41.425781 24.046875 C 42.144531 23.992188 42.164062 23 41.484375 21.027344 C 41.210938 20.238281 40.988281 19.402344 40.988281 19.171875 C 40.988281 18.9375 40.820312 18.609375 40.617188 18.441406 C 40.035156 17.960938 40.4375 17.683594 41.484375 17.851562 C 42.746094 18.054688 44.0625 17.28125 44.449219 16.109375 C 44.75 15.199219 45.273438 14.851562 45.648438 15.3125 C 46.132812 15.90625 47.234375 19.84375 47.359375 21.417969 C 47.503906 23.265625 47.226562 24.007812 46.261719 24.375 C 45.367188 24.710938 44.523438 24.113281 44.3125 22.992188 C 44.128906 22.007812 44.671875 21.152344 45.480469 21.152344 C 46.039062 21.152344 46.042969 21.027344 45.53125 19.1875 L 45.121094 17.722656 L 44.085938 18.328125 C 43.515625 18.660156 42.75 18.933594 42.390625 18.933594 C 41.578125 18.933594 41.578125 19.03125 42.359375 20.730469 C 43.0625 22.265625 43.574219 25.757812 43.226562 26.671875 C 42.441406 27.949219 41.777344 27.632812 40.96875 26.839844 Z M 32.054688 18.457031 C 30.867188 17.273438 31.132812 15.480469 32.496094 15.480469 C 32.910156 15.480469 33.066406 15.339844 33.066406 14.960938 C 33.066406 13.664062 31.5 8.949219 30.429688 7.015625 C 29.859375 5.992188 30.347656 5.597656 31.3125 6.308594 C 31.761719 6.636719 32.628906 6.914062 33.601562 7.03125 C 34.941406 7.195312 35.167969 7.296875 35.167969 7.71875 C 35.167969 8.148438 34.980469 8.21875 33.640625 8.285156 L 32.113281 8.355469 L 32.832031 9.886719 C 33.652344 11.632812 34.445312 14.53125 34.6875 16.660156 C 34.84375 18.042969 34.820312 18.140625 34.171875 18.648438 C 33.273438 19.351562 32.921875 19.320312 32.054688 18.457031 Z M 38.128906 12.164062 C 37.117188 11.160156 37.484375 9.8125 38.769531 9.8125 L 39.507812 9.8125 L 39.355469 8.394531 C 39.273438 7.617188 38.992188 5.90625 38.734375 4.597656 C 38.214844 1.976562 38.152344 0.757812 38.503906 0.207031 C 38.699219 -0.101562 38.820312 -0.078125 39.304688 0.371094 C 40.191406 1.199219 41.023438 1.300781 41.808594 0.683594 C 42.726562 -0.0351562 43.226562 0.1875 43.058594 1.234375 C 42.988281 1.683594 43.164062 3.316406 43.445312 4.863281 C 43.957031 7.679688 44.113281 10.679688 43.769531 11.195312 C 43.476562 11.636719 42.53125 11.832031 42.019531 11.5625 C 41.390625 11.226562 40.894531 9.96875 41.085938 9.203125 C 41.183594 8.820312 41.476562 8.527344 41.867188 8.429688 C 42.460938 8.28125 42.492188 8.199219 42.421875 6.800781 L 42.347656 5.324219 L 40.105469 5.238281 L 40.441406 6.847656 C 40.914062 9.101562 40.753906 11.96875 40.128906 12.425781 C 39.4375 12.929688 38.816406 12.847656 38.128906 12.164062 Z M 41.941406 3.957031 C 42.0625 3.722656 42.109375 3.167969 42.042969 2.726562 C 41.941406 2.042969 41.84375 1.949219 41.367188 2.070312 C 41.058594 2.144531 40.40625 2.039062 39.910156 1.832031 C 39.027344 1.15625 39.878906 3.824219 40.175781 4.082031 C 40.765625 4.523438 41.675781 4.460938 41.941406 3.957031 Z M 41.941406 3.957031 "/>
</g>
</svg>
