<?xml version="1.0" encoding="UTF-8"?>
<svg xmlns="http://www.w3.org/2000/svg" xmlns:xlink="http://www.w3.org/1999/xlink" width="60px" height="67px" viewBox="0 0 60 66" version="1.1">
<g id="surface1">
<path style=" stroke:none;fill-rule:nonzero;fill:rgb(0%,0%,0%);fill-opacity:1;" d="M 2.5 20.09375 C 4.960938 17.019531 23.4375 3.203125 28.40625 0.726562 C 32.03125 -1.082031 33.753906 -0.0742188 44.636719 10.21875 C 60.574219 25.289062 59.675781 24.042969 59.949219 31.5 C 60.320312 41.707031 58.945312 63.875 57.03125 65.089844 C 56.167969 65.640625 51.160156 66.101562 45.910156 66.121094 C 40.660156 66.144531 32.050781 65.785156 28.3125 65.941406 C 4.070312 66.007812 0.890625 66.972656 0.632812 61.324219 C 0.59375 60.460938 0.328125 56.335938 0.421875 52.105469 C 0.515625 47.871094 0.449219 39.875 0.253906 34.335938 C -0.164062 22.089844 -0.425781 23.753906 2.5 20.09375 Z M 9.796875 51.089844 C 9.632812 57.003906 12.375 55.757812 17.390625 55.808594 C 23.640625 55.878906 43.273438 56.628906 48.648438 55.773438 C 50.40625 55.492188 49.542969 51.578125 49.917969 41.140625 C 50.304688 30.320312 51.5 30.761719 46.886719 25.144531 C 44.320312 22.019531 39.34375 17.511719 36.75 14.316406 C 32.222656 8.730469 31.089844 8.550781 28.285156 10.976562 C 13.140625 24.058594 9.242188 25.132812 9.65625 28.375 C 9.972656 36.425781 10.058594 42.484375 9.796875 51.089844 Z M 19.03125 35.191406 C 20.21875 34.894531 22.207031 35.828125 24.023438 37.527344 L 27.046875 40.355469 L 29.109375 37.941406 C 38.210938 27.292969 43.402344 24.820312 43.355469 31.15625 C 43.328125 33.546875 41.621094 36.046875 36.105469 41.707031 C 31.855469 46.066406 28.0625 49.027344 26.898438 48.886719 C 24.828125 48.632812 18.597656 43.335938 17.363281 40.773438 C 16.171875 38.296875 16.945312 35.707031 19.03125 35.191406 Z M 19.03125 35.191406 "/>
</g>
</svg>
